<svg xmlns="http://www.w3.org/2000/svg" version="1.1" fill="red" viewBox="-5.0 -10.0 110.0 135.0">
 <path d="m58.828 12.18c2.2422 0 4.1289 1.6758 4.3984 3.8984l0.35547 2.9922h-27.168l0.35938-2.9922c0.26562-2.2227 2.1523-3.8984 4.3906-3.8984zm-44.484 11.613h71.309v8.9336l-71.309 0.003907zm17.965 23.82c-0.074219 0-0.14453 0.003907-0.21875 0.007813-1.3008 0.12109-2.2539 1.2695-2.1367 2.5664l2.3477 25.602c0.11328 1.2266 1.1406 2.1484 2.3477 2.1484 0.070312 0 0.14453-0.003906 0.21875-0.011719 1.2969-0.11719 2.2539-1.2656 2.1367-2.5664l-2.3477-25.602c-0.11328-1.2266-1.1406-2.1445-2.3477-2.1445zm17.691-0.10938v0.003906c-1.3047-0.003906-2.3633 1.0547-2.3633 2.3594v25.707c0 1.3047 1.0586 2.3633 2.3633 2.3633 1.3008 0 2.3594-1.0586 2.3594-2.3633v-25.707c0-1.3047-1.0586-2.3633-2.3594-2.3633v0.003906zm17.691 0.10938c-1.207 0-2.2383 0.91797-2.3516 2.1445l-2.3438 25.602c-0.12109 1.3008 0.83594 2.4492 2.1328 2.5664 0.074219 0.007813 0.14844 0.011719 0.21875 0.011719 1.207 0 2.2383-0.92188 2.3477-2.1484l2.3477-25.602c0.12109-1.2969-0.83594-2.4453-2.1367-2.5664-0.070312-0.003906-0.14453-0.007813-0.21484-0.007813zm8.7031 36.297c-0.26953 2.2266-2.1562 3.9023-4.3984 3.9023h-43.992c-2.2422 0-4.1289-1.6758-4.3945-3.9023l-5.5586-46.457 63.902-0.003906zm-35.227-76.457v0.003906c-4.6328 0-8.5312 3.4609-9.082 8.0625l-0.42578 3.5508h-19.676c-0.625 0-1.2266 0.24609-1.6719 0.69141-0.44141 0.44141-0.69141 1.043-0.69141 1.668v13.66c0 0.62891 0.25 1.2266 0.69141 1.6719 0.44531 0.44141 1.0469 0.69141 1.6719 0.69141h1.3086l5.6289 47.02c0.55078 4.5977 4.4492 8.0586 9.082 8.0625h43.992c4.6328-0.003906 8.5352-3.4648 9.0859-8.0625l5.625-47.02 1.3047-0.003906c1.3047 0 2.3633-1.0547 2.3633-2.3594v-13.66c0-1.3008-1.0586-2.3594-2.3633-2.3594h-19.676l-0.42188-3.5508c-0.55078-4.6016-4.4531-8.0625-9.0859-8.0625l-17.66-0.003906v0.003906z"/>
<text x="0.0" y="117.5" font-size="5.0" font-weight="bold" font-family="Arbeit Regular, Helvetica, Arial-Unicode, Arial, Sans-serif" fill="#000000"></text><text x="0.0" y="122.5" font-size="5.0" font-weight="bold" font-family="Arbeit Regular, Helvetica, Arial-Unicode, Arial, Sans-serif" fill="#000000"></text></svg>