<svg xmlns="http://www.w3.org/2000/svg" version="1.1" viewBox="-5.0 -10.0 110.0 135.0">
 <path d="m59.375 78.125c0 5.1758-4.1992 9.375-9.375 9.375s-9.375-4.1992-9.375-9.375 4.1992-9.375 9.375-9.375 9.375 4.1992 9.375 9.375zm-9.375-46.875c5.1758 0 9.375-4.1992 9.375-9.375s-4.1992-9.375-9.375-9.375-9.375 4.1992-9.375 9.375 4.1992 9.375 9.375 9.375zm0 9.375c-5.1758 0-9.375 4.1992-9.375 9.375s4.1992 9.375 9.375 9.375 9.375-4.1992 9.375-9.375-4.1992-9.375-9.375-9.375z"/>
<text x="0.0" y="117.5" font-size="5.0" font-weight="bold" font-family="Arbeit Regular, Helvetica, Arial-Unicode, Arial, Sans-serif" fill="#000000"></text><text x="0.0" y="122.5" font-size="5.0" font-weight="bold" font-family="Arbeit Regular, Helvetica, Arial-Unicode, Arial, Sans-serif" fill="#000000"></text></svg>