<svg xmlns="http://www.w3.org/2000/svg" version="1.1" viewBox="-5.0 -10.0 110.0 135.0">
 <path d="m50 3.6797c25.582 0 46.32 20.738 46.32 46.32s-20.738 46.32-46.32 46.32-46.32-20.738-46.32-46.32 20.738-46.32 46.32-46.32zm24.656 80.918c0-22.566-26.777-33.035-42.09-17.719-4.6133 4.6133-7.2227 10.715-7.2227 17.719 14.73 10.516 34.582 10.516 49.312 0zm-53.027-2.9805c1.0664-11.359 8.832-20.902 19.496-24.395-9.7383-5.7852-11.477-19.223-3.4297-27.27 10.934-10.934 29.699-3.1445 29.699 12.301 0 6.2852-3.3477 11.891-8.5234 14.969 10.668 3.4961 18.434 13.039 19.5 24.395 18.113-16.258 18.91-44.41 1.668-61.656-16.59-16.59-43.488-16.59-60.074 0-17.246 17.246-16.449 45.398 1.6641 61.656zm37.957-48.949c-8.5195-8.5195-23.145-2.4531-23.145 9.5859 0 12.043 14.629 18.105 23.145 9.5898 5.2969-5.293 5.2969-13.879 0-19.176z" fill-rule="evenodd"/>
<text x="0.0" y="117.5" font-size="5.0" font-weight="bold" font-family="Arbeit Regular, Helvetica, Arial-Unicode, Arial, Sans-serif" fill="#000000"></text><text x="0.0" y="122.5" font-size="5.0" font-weight="bold" font-family="Arbeit Regular, Helvetica, Arial-Unicode, Arial, Sans-serif" fill="#000000"></text></svg>